<svg xmlns="http://www.w3.org/2000/svg" width="974.392" height="750.692" viewBox="0 0 974.392 750.692">
  <g id="Cartoon" transform="translate(-0.275 -0.308)">
    <rect id="Rectangle_29" data-name="Rectangle 29" width="885.733" height="572.867" transform="translate(0.275 0.387)" fill="#e6e6e6"/>
    <rect id="Rectangle_30" data-name="Rectangle 30" width="835.812" height="467.125" transform="translate(25.235 72.239)" fill="#fff"/>
    <rect id="Rectangle_31" data-name="Rectangle 31" width="885.733" height="38.001" transform="translate(0.275 0.308)" fill="#0474bf"/>
    <ellipse id="Ellipse_3" data-name="Ellipse 3" cx="6.873" cy="7.043" rx="6.873" ry="7.043" transform="translate(20.587 12.265)" fill="#fff"/>
    <ellipse id="Ellipse_4" data-name="Ellipse 4" cx="6.873" cy="7.043" rx="6.873" ry="7.043" transform="translate(46.676 12.265)" fill="#fff"/>
    <ellipse id="Ellipse_5" data-name="Ellipse 5" cx="6.873" cy="7.043" rx="6.873" ry="7.043" transform="translate(72.765 12.265)" fill="#fff"/>
    <rect id="Rectangle_32" data-name="Rectangle 32" width="211.467" height="370.189" transform="translate(100.014 113.31)" fill="#e6e6e6"/>
    <rect id="Rectangle_33" data-name="Rectangle 33" width="176.222" height="101.899" transform="translate(353.667 116.256)" fill="#3c92cb"/>
    <rect id="Rectangle_34" data-name="Rectangle 34" width="176.222" height="109.638" transform="translate(353.667 241.608)" fill="#e6e6e6"/>
    <rect id="Rectangle_35" data-name="Rectangle 35" width="176.222" height="101.899" transform="translate(353.667 374.628)" fill="#e6e6e6"/>
    <rect id="Rectangle_36" data-name="Rectangle 36" width="211.467" height="161.326" transform="translate(571.579 115.825)" fill="#e6e6e6"/>
    <rect id="Rectangle_37" data-name="Rectangle 37" width="211.467" height="161.326" transform="translate(571.579 316.22)" fill="#e6e6e6"/>
    <path id="Path_1" data-name="Path 1" d="M755.712,404.914V370.183c0-25.7,20.334-46.54,45.417-46.54s45.417,20.837,45.417,46.54v34.731a6.185,6.185,0,0,1-6.1,6.252H761.813A6.185,6.185,0,0,1,755.712,404.914Z" transform="translate(-53.547 -118.966)" fill="#2f2e41"/>
    <path id="Path_2" data-name="Path 2" d="M604.2,554.526l-16.019,4.543-24.723-61.152,23.643-6.7Z" transform="translate(210.981 166.178)" fill="#ffb8b8"/>
    <path id="Path_3" data-name="Path 3" d="M20.106-.245l32.111-.2L52.089,20.2-.24,20.529h0A20.748,20.748,0,0,1,20.106-.245Z" transform="translate(767.218 729.393) rotate(-15.47)" fill="#2f2e41"/>
    <path id="Path_4" data-name="Path 4" d="M476.764,564.282H460.143l-7.908-65.695h24.532Z" transform="translate(169.165 169.049)" fill="#ffb8b8"/>
    <path id="Path_5" data-name="Path 5" d="M454.607,542.372h32.055v20.682H434.424A20.437,20.437,0,0,1,454.607,542.372Z" transform="translate(162.745 186.092)" fill="#2f2e41"/>
    <path id="Path_6" data-name="Path 6" d="M701.5,458.6a13.426,13.426,0,0,0,20.867,1.274l44.183,20.364-4.019-25.467-41.341-15.433a13.462,13.462,0,0,0-18.194.669,14.3,14.3,0,0,0-1.5,18.593Z" transform="translate(-75.18 -80.05)" fill="#ffb8b8"/>
    <path id="Path_7" data-name="Path 7" d="M786.683,613.257c-13.882,0-28.252-2.119-40.331-8.421A53.066,53.066,0,0,1,719.633,572.1c-6.294-20.421,1.642-40.483,9.316-59.884,4.755-12.022,9.247-23.377,10.412-34.57l.407-3.974c1.815-17.848,3.383-33.263,12.062-39.045,4.5-3,10.547-3.168,18.493-.524l74.626,24.842L842.2,604.106l-.453.155C841.361,604.4,815.053,613.257,786.683,613.257Z" transform="translate(-67.543 -84.221)" fill="#2f2e41"/>
    <path id="Path_8" data-name="Path 8" d="M761.339,403.259s36.6-11.114,65.075-6.946c0,0-16.269,91.69-10.846,122.254s-94.223,11.809-73.887-17.366l6.779-34.731S734.9,452.578,747.1,435.907Z" transform="translate(-59.886 -95.56)" fill="#9ed0ec"/>
    <path id="Path_9" data-name="Path 9" d="M754.019,624.059l-45.114-8.668,15.75-124.208c1.059-3.468,25.458-82.164,36.539-86.422a185.581,185.581,0,0,1,24.628-7.011l1.6-.329-9.046,13.9-36.014,88.432Z" transform="translate(-71.261 -96.844)" fill="#2f2e41"/>
    <path id="Path_10" data-name="Path 10" d="M740.137,799.207l-58.289-9.955,32.711-136.874L763.234,465.2l.48,3.324c.038.248,4.585,24.7,72.057,13.85l.593-.095.164.592,81.55,295.268-66.417,11.343L791.084,574.051Z" transform="translate(-77.183 -81.098)" fill="#272636"/>
    <path id="Path_11" data-name="Path 11" d="M784.436,648.54l.036-1.051c.041-1.167,4.051-117.214,2.711-163.885-1.344-46.83,13.451-87.385,13.6-87.789l.121-.326.327-.1c19.142-5.6,35.749,11.121,35.915,11.291l.233.239-5.452,46.09,23.34,167.6Z" transform="translate(-42.997 -98.626)" fill="#2f2e41"/>
    <ellipse id="Ellipse_6" data-name="Ellipse 6" cx="33.298" cy="34.121" rx="33.298" ry="34.121" transform="translate(704.716 222.707)" fill="#ffb8b8"/>
    <path id="Path_12" data-name="Path 12" d="M747.787,369.458c.022-20.323,16.094-36.792,35.927-36.815h6.779c19.832.023,35.9,16.492,35.926,36.815v.695H812.093l-4.886-14.02-.977,14.02h-7.4l-2.465-7.074-.493,7.074H747.787Z" transform="translate(-56.663 -115.365)" fill="#2f2e41"/>
    <path id="Path_13" data-name="Path 13" d="M780.219,407.249a6.286,6.286,0,0,1-.478-6.539c7.184-14,17.241-39.872,3.891-55.826l-.96-1.146H821.43v59.628l-35.207,6.366a5.993,5.993,0,0,1-6-2.48Z" transform="translate(-45.343 -111.893)" fill="#2f2e41"/>
    <path id="Path_14" data-name="Path 14" d="M743.818,224.639c-75.589-65.36-188.174-57.373-254.251,18.039s-61.748,190.972,9.777,260.97S683.72,572.766,754.2,501.659L978.728,695.8a16.588,16.588,0,0,0,23.772-2.04,17.582,17.582,0,0,0-1.991-24.36l-.025-.022L775.952,475.238c54.057-79.5,40.131-188.108-32.133-250.6Zm-14.475,231.9c-48.845,59.319-135.369,66.831-193.256,16.778S470.869,334.6,519.715,275.286s135.369-66.83,193.256-16.777h0c57.887,50.053,65.217,138.716,16.372,198.034Z" transform="translate(-162.246 -167.041)" fill="#f0981a"/>
    <path id="Path_15" data-name="Path 15" d="M528.174,444.187C473.622,397.014,463.5,314.85,504.9,255.265q-3.933,4.059-7.6,8.5c-48.846,59.318-41.515,147.982,16.372,198.034s144.411,42.542,193.256-16.777q3.662-4.45,6.9-9.113c-50.353,51.844-131.094,55.443-185.65,8.276Z" transform="translate(-161.81 -143.347)" opacity="0.3"/>
    <path id="Path_16" data-name="Path 16" d="M792.979,507.264a13.371,13.371,0,0,0,11.312-2.314,14.063,14.063,0,0,0,5.531-10.373L856.5,481.3l-18.976-16.953-41.42,15.208a13.832,13.832,0,0,0-13.573,12.431A14.025,14.025,0,0,0,792.979,507.264Z" transform="translate(-43.707 -70.383)" fill="#ffb8b8"/>
    <path id="Path_17" data-name="Path 17" d="M805.272,524.138l-2.842-27.654,38.994-22.046L816,442.9l4.149-35.425,10.33-4.537.321.423c4.871,6.418,47.593,62.906,47.593,69.889,0,7.172-8.173,28.234-19.355,33.963-10.786,5.526-51.288,16.267-53.007,16.723Z" transform="translate(-34.289 -92.688)" fill="#2f2e41"/>
    <path id="Path_18" data-name="Path 18" d="M1089.652,730.075H573.122a1.39,1.39,0,0,1,0-2.779h516.53a1.39,1.39,0,0,1,0,2.779Z" transform="translate(-116.341 20.925)" fill="#ccc"/>
  </g>
</svg>
