<svg xmlns="http://www.w3.org/2000/svg" xmlns:xlink="http://www.w3.org/1999/xlink" width="144.667" height="125.333" viewBox="0 0 144.667 125.333">
  <defs>
    <linearGradient id="linear-gradient" x1="1" x2="0" y2="1" gradientUnits="objectBoundingBox">
      <stop offset="0" stop-color="#f0981a"/>
      <stop offset="0.55" stop-color="#f80a0a"/>
      <stop offset="1" stop-color="#ab100a"/>
    </linearGradient>
  </defs>
  <g id="language-solid" transform="translate(-2.3 -3)">
    <path id="Path_19" data-name="Path 19" d="M11,16.5l-1,3.1h2Z" transform="translate(30.18 49.967)" fill="#f0981a"/>
    <path id="Path_20" data-name="Path 20" d="M132.967,3H58.3V24.535H76.967v8.614H16.3c-7.933,0-14,5.6-14,12.921V93.447c0,7.322,6.067,12.921,14,12.921h4.667v21.966l29.4-21.966H81.633V76.219h51.333c7.933,0,14-5.6,14-12.921V15.921C146.967,8.6,140.9,3,132.967,3ZM52.7,88.709l-2.333-6.891H35.9l-2.8,6.891H21.9L37.3,50.377H48.5L63.9,88.709Zm70.933-34.025V63.3a44.955,44.955,0,0,1-18.2-4.307A53.417,53.417,0,0,1,86.767,63.3L86.3,54.684a38.3,38.3,0,0,0,9.8-1.292,28.914,28.914,0,0,1-8.4-13.782h9.8c1.4,3.876,4.2,6.891,7.467,9.475a21.782,21.782,0,0,0,8.867-15.936h-28V24.535h14V15.921h9.333v8.614h15.4l.467,4.307a31.405,31.405,0,0,1-10.267,24.55A34.154,34.154,0,0,0,123.633,54.684Z" fill="url(#linear-gradient)"/>
  </g>
</svg>
