<svg id="search_Icon" xmlns="http://www.w3.org/2000/svg" width="88.83" height="88.205" viewBox="0 0 88.83 88.205">
  <path id="Path_23" data-name="Path 23" d="M24.459,24.452a5.579,5.579,0,0,1,7.856,0L53.688,45.676a5.487,5.487,0,0,1,0,7.8,5.58,5.58,0,0,1-7.853,0L24.467,32.254a5.486,5.486,0,0,1,0-7.8Z" transform="translate(33.513 33.115)" fill="#f0981a" fill-rule="evenodd"/>
  <path id="Path_24" data-name="Path 24" d="M36.086,66.155A30.322,30.322,0,1,0,5.552,35.834,30.428,30.428,0,0,0,36.086,66.155ZM72.173,35.834A36.087,36.087,0,1,1,36.086,0,35.961,35.961,0,0,1,72.173,35.834Z" fill="#f0981a" fill-rule="evenodd"/>
</svg>
